<svg width="264" height="60" viewBox="0 0 264 60" fill="none" xmlns="http://www.w3.org/2000/svg">
<path d="M81.0223 7.54166V43.206H73.7656V7.54166H81.0223Z" fill="white"/>
<path d="M113.961 9.99752C116.738 11.951 118.836 14.5742 120.197 17.9229C121.161 20.3229 121.671 22.7787 121.671 25.4019C121.671 28.0251 121.161 30.5366 120.197 32.8808C118.836 36.2295 116.795 38.8527 113.961 40.8062C110.899 42.9271 107.214 44.0433 102.905 44.0433C98.6535 44.0433 94.9685 42.9829 91.8504 40.8062C89.0724 38.8527 86.9748 36.2295 85.6141 32.8808C84.6504 30.4808 84.1401 27.9692 84.1401 25.4019C84.1401 22.7787 84.6504 20.3229 85.6141 17.9229C86.9748 14.5742 89.0157 11.951 91.8504 9.99752C94.9685 7.87663 98.6535 6.76038 102.905 6.76038C107.157 6.76038 110.842 7.82082 113.961 9.99752ZM109.709 15.8021C107.838 14.5184 105.57 13.9044 102.905 13.9044C100.298 13.9044 98.0299 14.5184 96.159 15.8021C94.4582 16.9741 93.211 18.5369 92.3606 20.5461C91.737 22.0531 91.4535 23.6717 91.4535 25.346C91.4535 27.0762 91.737 28.6948 92.3606 30.2018C93.1543 32.211 94.4015 33.7738 96.159 34.9458C98.0299 36.2295 100.298 36.8993 102.905 36.8993C105.513 36.8993 107.781 36.2295 109.709 34.9458C111.409 33.7738 112.657 32.211 113.507 30.2018C114.131 28.6948 114.414 27.0762 114.414 25.346C114.414 23.6158 114.131 21.9973 113.507 20.5461C112.657 18.5369 111.409 16.9741 109.709 15.8021Z" fill="white"/>
<path d="M139.813 14.6857V43.206H132.556V14.6857H122.748V7.54166H149.62V14.6857H139.813Z" fill="white"/>
<path d="M185.791 7.54166V27.2994C185.791 31.9319 184.147 35.8387 180.802 39.1317C177.513 42.3688 173.488 44.0432 168.783 44.0432C164.077 44.0432 160.109 42.4247 156.764 39.1317C153.476 35.8946 151.775 31.9319 151.775 27.2994V7.54166H159.032V27.2994C159.032 29.9784 159.995 32.2109 161.866 34.1085C163.794 36.0062 166.062 36.955 168.783 36.955C171.504 36.955 173.772 36.0062 175.699 34.1085C177.57 32.2667 178.534 29.9784 178.534 27.2994V7.54166H185.791Z" fill="white"/>
<path d="M196.109 7.4859C196.846 8.21147 197.186 9.04866 197.186 10.1091C197.186 11.1137 196.846 12.0067 196.109 12.7323C195.372 13.4579 194.521 13.7927 193.444 13.7927C192.424 13.7927 191.517 13.4579 190.78 12.7323C190.043 12.0067 189.702 11.1695 189.702 10.1091C189.702 9.10447 190.043 8.21147 190.78 7.4859C191.517 6.76033 192.367 6.42546 193.444 6.42546C194.521 6.36964 195.372 6.76033 196.109 7.4859ZM197.073 15.802V43.2061H189.816V15.802H197.073Z" fill="white"/>
<path d="M209.261 48.6198C210.962 50.1826 213.003 50.9082 215.328 50.9082C217.652 50.9082 219.636 50.1268 221.167 48.6198C222.698 47.1129 223.491 45.2153 223.491 43.0386C223.491 42.8153 223.491 42.5921 223.491 42.3688V41.1967C221.564 43.0386 218.729 43.9874 214.931 43.9874C210.679 43.9874 207.107 42.5921 204.216 39.7456C201.324 36.8991 199.907 33.4946 199.907 29.476C199.907 25.4575 201.324 22.0529 204.216 19.2065C207.107 16.36 210.849 14.9089 215.384 14.9089C218.843 14.9089 221.507 15.8577 223.435 17.6995V15.7461H230.635V43.206C230.635 47.2245 229.161 50.6291 226.269 53.4755C223.378 56.322 219.806 57.7173 215.554 57.7173C212.266 57.7173 209.035 56.6569 206.03 54.4802C203.422 52.5267 201.551 50.1268 200.417 47.2803L206.653 45.2711C207.334 46.6106 208.184 47.7268 209.261 48.6198ZM215.384 21.6064C212.776 21.6064 210.849 22.3878 209.545 23.8948C207.901 25.4575 207.107 27.2993 207.107 29.476C207.107 31.6527 207.901 33.4946 209.545 35.0573C210.849 36.6201 212.776 37.3457 215.384 37.3457C217.652 37.3457 219.58 36.5643 221.224 35.0573C222.698 33.4946 223.435 31.6527 223.435 29.476C223.435 27.2993 222.698 25.4575 221.224 23.8948C219.636 22.3878 217.652 21.6064 215.384 21.6064Z" fill="white"/>
<path d="M248.38 14.9648C252.462 14.9648 255.92 16.4159 258.811 19.2623C261.703 22.1088 263.12 25.5134 263.12 29.5319C263.12 33.5504 261.703 36.955 258.811 39.8015C255.92 42.6479 252.462 44.0433 248.38 44.0433C244.298 44.0433 240.84 42.6479 237.948 39.8015C235.057 36.955 233.64 33.5504 233.64 29.5319C233.64 25.5134 235.057 22.1088 237.948 19.2623C240.84 16.3601 244.298 14.9648 248.38 14.9648ZM243.051 23.9506C241.577 25.5134 240.84 27.3552 240.84 29.5319C240.84 31.7086 241.577 33.5504 243.051 35.1132C244.525 36.6201 246.282 37.4015 248.38 37.4015C250.477 37.4015 252.235 36.6201 253.709 35.1132C255.183 33.5504 255.92 31.7086 255.92 29.5319C255.92 27.3552 255.183 25.5134 253.709 23.9506C252.235 22.3879 250.477 21.6623 248.38 21.6623C246.282 21.6065 244.525 22.3879 243.051 23.9506Z" fill="white"/>
<path d="M73.5952 48.2292H78.0741V48.7316H76.1465V54.0338H75.5795V48.7316H73.6519V48.2292H73.5952Z" fill="white"/>
<path d="M81.0785 49.9595C81.4187 50.1269 81.7022 50.406 81.8722 50.7409C82.0423 51.0757 82.1557 51.4664 82.1557 51.8571C82.1557 52.3036 82.0423 52.6385 81.8722 52.9734C81.7022 53.3083 81.4187 53.5873 81.0785 53.7548C80.7384 53.9222 80.3415 54.0338 79.9447 54.0338C79.5478 54.0338 79.151 53.9222 78.8108 53.7548C78.4706 53.5873 78.1872 53.3083 78.0171 52.9734C77.847 52.6385 77.7336 52.2478 77.7336 51.8571C77.7336 51.4106 77.847 51.0757 78.0171 50.7409C78.1872 50.406 78.4706 50.1269 78.8108 49.9595C79.151 49.792 79.5478 49.6804 79.9447 49.6804C80.3415 49.6804 80.7384 49.792 81.0785 49.9595ZM79.0943 50.3502C78.8675 50.5176 78.6407 50.6851 78.5273 50.9641C78.414 51.2432 78.3006 51.5222 78.3006 51.8571C78.3006 52.192 78.3573 52.4711 78.5273 52.7501C78.6407 53.0292 78.8675 53.1966 79.0943 53.3641C79.321 53.5315 79.6612 53.5873 79.9447 53.5873C80.2848 53.5873 80.5683 53.5315 80.7951 53.3641C81.0218 53.1966 81.2486 53.0292 81.362 52.7501C81.4754 52.4711 81.5888 52.192 81.5888 51.8571C81.5888 51.5222 81.5321 51.2432 81.362 50.9641C81.2486 50.6851 81.0218 50.5176 80.7951 50.3502C80.5683 50.1827 80.2281 50.1269 79.9447 50.1269C79.6045 50.1827 79.321 50.2385 79.0943 50.3502Z" fill="white"/>
<path d="M87.0314 49.6804V53.5873C87.0314 54.0338 86.9181 54.3687 86.748 54.7035C86.5779 55.0384 86.2944 55.2617 85.9543 55.4291C85.6141 55.5965 85.2173 55.7082 84.8204 55.7082C84.1401 55.7082 83.5732 55.4849 83.0062 55.0384L83.2897 54.6477C83.5165 54.8152 83.7432 54.9826 83.97 55.0942C84.1968 55.2059 84.4802 55.2617 84.7637 55.2617C85.2739 55.2617 85.6708 55.0942 85.9543 54.8152C86.2377 54.5361 86.4078 54.1454 86.4078 53.6431V52.9175C86.2377 53.1966 86.011 53.4757 85.7275 53.6431C85.444 53.8105 85.1039 53.9222 84.707 53.9222C84.3102 53.9222 83.97 53.8105 83.6298 53.6431C83.3464 53.4757 83.0629 53.1966 82.8928 52.9175C82.7228 52.5827 82.6094 52.2478 82.6094 51.8571C82.6094 51.4664 82.7228 51.0757 82.8928 50.7967C83.0629 50.4618 83.2897 50.2385 83.6298 50.0711C83.9133 49.9037 84.3102 49.792 84.707 49.792C85.1039 49.792 85.444 49.9037 85.7275 50.0711C86.011 50.2385 86.2377 50.4618 86.4078 50.7967V49.8479H87.0314V49.6804ZM85.6708 53.1966C85.8976 53.0292 86.1244 52.8617 86.2377 52.6385C86.3511 52.4152 86.4645 52.1362 86.4645 51.8013C86.4645 51.4664 86.4078 51.1874 86.2377 50.9641C86.1244 50.7409 85.8976 50.5176 85.6708 50.406C85.444 50.2385 85.1606 50.1827 84.8771 50.1827C84.5936 50.1827 84.3102 50.2385 84.0834 50.406C83.8566 50.5734 83.6298 50.7409 83.5165 50.9641C83.4031 51.1874 83.2897 51.5222 83.2897 51.8013C83.2897 52.1362 83.3464 52.4152 83.5165 52.6385C83.6298 52.8617 83.8566 53.085 84.0834 53.1966C84.3102 53.364 84.5936 53.4199 84.9338 53.4199C85.1606 53.4199 85.444 53.364 85.6708 53.1966Z" fill="white"/>
<path d="M91.6802 50.2943C92.0204 50.7408 92.1904 51.2989 92.1904 52.0245H88.5054C88.5621 52.471 88.7322 52.8617 89.0156 53.1407C89.2991 53.4198 89.696 53.5872 90.1495 53.5872C90.433 53.5872 90.7164 53.5314 90.9432 53.4198C91.17 53.3082 91.3967 53.1966 91.5668 52.9733L91.907 53.3082C91.6802 53.5314 91.4534 53.6989 91.1133 53.8105C90.8298 53.9221 90.4897 53.9779 90.1495 53.9779C89.696 53.9779 89.3558 53.8663 89.0156 53.6989C88.6755 53.5314 88.4487 53.2524 88.2219 52.9175C88.0519 52.5826 87.9385 52.1919 87.9385 51.8013C87.9385 51.3548 88.0519 51.0199 88.2219 50.685C88.392 50.3501 88.6755 50.0711 89.0156 49.9036C89.3558 49.7362 89.696 49.6246 90.1495 49.6246C90.7731 49.6804 91.3401 49.9036 91.6802 50.2943ZM91.6802 51.6338C91.6802 51.1873 91.5101 50.7966 91.2267 50.5734C90.9432 50.2943 90.603 50.1827 90.1495 50.1827C89.696 50.1827 89.3558 50.2943 89.0156 50.5734C88.7322 50.8524 88.5621 51.1873 88.5054 51.6338H91.6802Z" fill="white"/>
<path d="M95.4222 53.7548C95.1387 53.9781 94.7985 54.0897 94.4584 54.0897C94.1182 54.0897 93.8348 53.9781 93.6647 53.7548C93.4946 53.5316 93.3812 53.2525 93.3812 52.806V50.2386H92.7576V49.7921H93.3812V48.6759H93.9481V49.7921H95.3655V50.2386H93.9481V52.7502C93.9481 53.3083 94.1749 53.5316 94.5718 53.5316C94.7985 53.5316 95.0253 53.4758 95.3088 53.3083L95.4222 53.7548Z" fill="white"/>
<path d="M99.8439 50.127C100.127 50.4061 100.297 50.8526 100.297 51.3549V54.0339H99.7305V51.4665C99.7305 51.0758 99.6171 50.7409 99.3903 50.5177C99.1636 50.2944 98.8234 50.1828 98.4265 50.1828C97.9163 50.1828 97.5761 50.3502 97.2927 50.6851C97.0092 51.02 96.8958 51.4107 96.8958 51.913V54.0339H96.3289V47.8945H96.8958V50.7409C97.1793 50.0712 97.8029 49.6805 98.6533 49.6805C99.1636 49.6805 99.5604 49.8479 99.8439 50.127Z" fill="white"/>
<path d="M104.946 50.2943C105.287 50.7408 105.457 51.2989 105.457 52.0245H101.772C101.828 52.471 101.998 52.8617 102.282 53.1407C102.565 53.4198 102.962 53.5872 103.416 53.5872C103.699 53.5872 103.983 53.5314 104.209 53.4198C104.436 53.3082 104.663 53.1966 104.833 52.9733L105.173 53.3082C104.946 53.5314 104.72 53.6989 104.379 53.8105C104.096 53.9221 103.756 53.9779 103.416 53.9779C102.962 53.9779 102.622 53.8663 102.282 53.6989C101.942 53.5314 101.715 53.2524 101.488 52.9175C101.318 52.5826 101.205 52.1919 101.205 51.8013C101.205 51.3548 101.318 51.0199 101.488 50.685C101.658 50.3501 101.942 50.0711 102.282 49.9036C102.622 49.7362 102.962 49.6246 103.416 49.6246C104.096 49.6804 104.606 49.9036 104.946 50.2943ZM104.946 51.6338C104.946 51.1873 104.776 50.7966 104.493 50.5734C104.209 50.2943 103.869 50.1827 103.416 50.1827C102.962 50.1827 102.622 50.2943 102.282 50.5734C101.998 50.8524 101.828 51.1873 101.772 51.6338H104.946Z" fill="white"/>
<path d="M107.668 49.9595C107.951 49.792 108.291 49.6804 108.631 49.6804V50.1827C108.178 50.1827 107.781 50.2944 107.498 50.5734C107.214 50.8525 107.044 51.2432 106.987 51.6897V54.0338H106.42V49.6804H106.987V50.6851C107.157 50.3502 107.384 50.1269 107.668 49.9595Z" fill="white"/>
<path d="M112.43 48.5642C112.26 48.7316 112.203 48.9549 112.203 49.1781V49.7921H113.507V50.2386H112.203V54.0338H111.636V50.2386H111.069V49.7921H111.636V49.2339C111.636 48.9549 111.693 48.6758 111.806 48.4526C111.919 48.2293 112.09 48.0619 112.316 47.9502C112.543 47.8386 112.77 47.7828 112.997 47.7828C113.28 47.7828 113.507 47.8386 113.79 48.0061L113.62 48.4526C113.393 48.3409 113.223 48.2851 113.053 48.2851C112.827 48.2851 112.6 48.3967 112.43 48.5642Z" fill="white"/>
<path d="M116.908 49.9595C117.249 50.1269 117.532 50.406 117.702 50.7409C117.872 51.0757 117.986 51.4664 117.986 51.8571C117.986 52.3036 117.872 52.6385 117.702 52.9734C117.532 53.3083 117.249 53.5873 116.908 53.7548C116.568 53.9222 116.171 54.0338 115.774 54.0338C115.378 54.0338 114.981 53.9222 114.641 53.7548C114.3 53.5873 114.017 53.3083 113.847 52.9734C113.677 52.6385 113.563 52.2478 113.563 51.8571C113.563 51.4106 113.677 51.0757 113.847 50.7409C114.017 50.406 114.3 50.1269 114.641 49.9595C114.981 49.792 115.378 49.6804 115.774 49.6804C116.171 49.6804 116.625 49.792 116.908 49.9595ZM114.924 50.3502C114.697 50.5176 114.471 50.6851 114.357 50.9641C114.244 51.2432 114.13 51.5222 114.13 51.8571C114.13 52.192 114.187 52.4711 114.357 52.7501C114.471 53.0292 114.697 53.1966 114.924 53.3641C115.151 53.5315 115.491 53.5873 115.774 53.5873C116.058 53.5873 116.398 53.5315 116.625 53.3641C116.852 53.1966 117.078 53.0292 117.192 52.7501C117.305 52.4711 117.419 52.192 117.419 51.8571C117.419 51.5222 117.362 51.2432 117.192 50.9641C117.078 50.6851 116.852 50.5176 116.625 50.3502C116.398 50.1827 116.058 50.1269 115.774 50.1269C115.491 50.1269 115.208 50.2385 114.924 50.3502Z" fill="white"/>
<path d="M120.253 49.9595C120.537 49.792 120.877 49.6804 121.217 49.6804V50.1827C120.764 50.1827 120.367 50.2944 120.083 50.5734C119.8 50.8525 119.63 51.2432 119.573 51.6897V54.0338H119.006V49.6804H119.573V50.6851C119.743 50.3502 119.97 50.1269 120.253 49.9595Z" fill="white"/>
<path d="M126.886 54.0338V53.3082C126.716 53.5873 126.49 53.7547 126.206 53.8663C125.923 53.978 125.582 54.0338 125.242 54.0338C124.959 54.0338 124.675 53.978 124.449 53.8663C124.222 53.7547 124.052 53.5873 123.938 53.4198C123.825 53.1966 123.768 52.9733 123.768 52.7501C123.768 52.3594 123.938 52.0803 124.222 51.8571C124.505 51.6338 124.902 51.5222 125.469 51.5222H126.943V51.1873C126.943 50.8525 126.83 50.5734 126.603 50.4059C126.376 50.2385 126.093 50.1269 125.696 50.1269C125.242 50.1269 124.732 50.2943 124.279 50.6292L124.052 50.2385C124.335 50.0153 124.619 49.9036 124.902 49.792C125.186 49.6804 125.469 49.6246 125.809 49.6246C126.319 49.6246 126.773 49.7362 127.056 50.0153C127.34 50.2943 127.51 50.6292 127.51 51.1315V54.0338H126.886ZM126.319 53.3082C126.603 53.1408 126.773 52.8617 126.886 52.5268V51.9687H125.469C125.072 51.9687 124.789 52.0245 124.562 52.1361C124.335 52.2478 124.279 52.471 124.279 52.6943C124.279 52.9733 124.392 53.1408 124.562 53.3082C124.732 53.4757 125.016 53.5315 125.356 53.5315C125.696 53.5873 126.036 53.5315 126.319 53.3082Z" fill="white"/>
<path d="M132.669 50.1827C132.329 50.1827 132.045 50.2386 131.819 50.406C131.592 50.5734 131.365 50.7409 131.252 51.0199C131.138 51.299 131.025 51.5781 131.025 51.9129C131.025 52.2478 131.082 52.5269 131.252 52.806C131.365 53.085 131.592 53.2525 131.819 53.4199C132.045 53.5873 132.329 53.6432 132.669 53.6432C132.953 53.6432 133.236 53.5873 133.463 53.4757C133.69 53.3641 133.916 53.2525 134.086 53.0292L134.427 53.3641C134.257 53.5873 133.973 53.7548 133.69 53.9222C133.406 54.0338 133.066 54.0897 132.669 54.0897C132.272 54.0897 131.875 53.978 131.535 53.8106C131.195 53.6432 130.968 53.3641 130.741 53.0292C130.571 52.6943 130.458 52.3036 130.458 51.9129C130.458 51.5223 130.571 51.1316 130.741 50.7967C130.912 50.4618 131.195 50.1827 131.535 50.0153C131.875 49.8479 132.216 49.7362 132.669 49.7362C133.009 49.7362 133.349 49.7921 133.633 49.9037C133.916 50.0153 134.143 50.1827 134.37 50.3502L134.03 50.7409C133.633 50.3502 133.236 50.1827 132.669 50.1827Z" fill="white"/>
<path d="M138.225 49.9595C138.565 50.1269 138.849 50.406 139.019 50.7409C139.189 51.0757 139.302 51.4664 139.302 51.8571C139.302 52.3036 139.189 52.6385 139.019 52.9734C138.849 53.3083 138.565 53.5873 138.225 53.7548C137.885 53.9222 137.488 54.0338 137.091 54.0338C136.694 54.0338 136.297 53.9222 135.957 53.7548C135.617 53.5873 135.334 53.3083 135.164 52.9734C134.994 52.6385 134.88 52.2478 134.88 51.8571C134.88 51.4106 134.994 51.0757 135.164 50.7409C135.334 50.406 135.617 50.1269 135.957 49.9595C136.297 49.792 136.694 49.6804 137.091 49.6804C137.488 49.6804 137.885 49.792 138.225 49.9595ZM136.184 50.3502C135.957 50.5176 135.731 50.6851 135.617 50.9641C135.504 51.2432 135.39 51.5222 135.39 51.8571C135.39 52.192 135.447 52.4711 135.617 52.7501C135.731 53.0292 135.957 53.1966 136.184 53.3641C136.411 53.5315 136.751 53.5873 137.034 53.5873C137.318 53.5873 137.658 53.5315 137.885 53.3641C138.112 53.1966 138.338 53.0292 138.452 52.7501C138.565 52.4711 138.679 52.192 138.679 51.8571C138.679 51.5222 138.622 51.2432 138.452 50.9641C138.338 50.6851 138.112 50.5176 137.885 50.3502C137.658 50.1827 137.318 50.1269 137.034 50.1269C136.751 50.1269 136.468 50.2385 136.184 50.3502Z" fill="white"/>
<path d="M143.838 50.1269C144.121 50.4059 144.291 50.8525 144.291 51.3548V54.0338H143.724V51.4664C143.724 51.0757 143.611 50.7408 143.384 50.5176C143.157 50.2943 142.817 50.1827 142.42 50.1827C141.967 50.1827 141.627 50.3501 141.343 50.5734C141.06 50.8525 140.89 51.1873 140.89 51.6896V54.0338H140.323V49.6804H140.89V50.685C141.06 50.3501 141.287 50.0711 141.57 49.9036C141.853 49.7362 142.25 49.6246 142.647 49.6246C143.157 49.6804 143.554 49.8478 143.838 50.1269Z" fill="white"/>
<path d="M149.223 50.1269C149.507 50.4059 149.677 50.8525 149.677 51.3548V54.0338H149.11V51.4664C149.11 51.0757 148.997 50.7408 148.77 50.5176C148.543 50.2943 148.203 50.1827 147.806 50.1827C147.353 50.1827 147.012 50.3501 146.729 50.5734C146.446 50.8525 146.275 51.1873 146.275 51.6896V54.0338H145.708V49.6804H146.275V50.685C146.445 50.3501 146.672 50.0711 146.956 49.9036C147.239 49.7362 147.636 49.6246 148.033 49.6246C148.486 49.6804 148.883 49.8478 149.223 50.1269Z" fill="white"/>
<path d="M154.269 50.2943C154.61 50.7408 154.78 51.2989 154.78 52.0245H151.095C151.151 52.471 151.321 52.8617 151.605 53.1407C151.888 53.4198 152.285 53.5872 152.739 53.5872C153.022 53.5872 153.306 53.5314 153.532 53.4198C153.759 53.3082 153.986 53.1966 154.156 52.9733L154.496 53.3082C154.269 53.5314 154.043 53.6989 153.702 53.8105C153.419 53.9221 153.079 53.9779 152.739 53.9779C152.285 53.9779 151.945 53.8663 151.605 53.6989C151.265 53.5314 151.038 53.2524 150.811 52.9175C150.641 52.5826 150.528 52.1919 150.528 51.8013C150.528 51.3548 150.641 51.0199 150.811 50.685C150.981 50.3501 151.265 50.0711 151.605 49.9036C151.945 49.7362 152.285 49.6246 152.739 49.6246C153.419 49.6804 153.929 49.9036 154.269 50.2943ZM154.269 51.6338C154.269 51.1873 154.099 50.7966 153.816 50.5734C153.532 50.2943 153.192 50.1827 152.739 50.1827C152.285 50.1827 151.945 50.2943 151.605 50.5734C151.321 50.8524 151.151 51.1873 151.095 51.6338H154.269Z" fill="white"/>
<path d="M157.557 50.1827C157.217 50.1827 156.934 50.2386 156.707 50.406C156.48 50.5734 156.253 50.7409 156.14 51.0199C156.027 51.299 155.913 51.5781 155.913 51.9129C155.913 52.2478 155.97 52.5269 156.14 52.806C156.253 53.085 156.48 53.2525 156.707 53.4199C156.934 53.5873 157.217 53.6432 157.557 53.6432C157.841 53.6432 158.124 53.5873 158.351 53.4757C158.578 53.3641 158.805 53.2525 158.975 53.0292L159.315 53.3641C159.145 53.5873 158.861 53.7548 158.578 53.9222C158.294 54.0338 157.954 54.0897 157.557 54.0897C157.161 54.0897 156.764 53.978 156.424 53.8106C156.083 53.6432 155.857 53.3641 155.63 53.0292C155.46 52.6943 155.346 52.3036 155.346 51.9129C155.346 51.5223 155.46 51.1316 155.63 50.7967C155.8 50.4618 156.083 50.1827 156.424 50.0153C156.764 49.8479 157.104 49.7362 157.557 49.7362C157.898 49.7362 158.238 49.7921 158.521 49.9037C158.805 50.0153 159.031 50.1827 159.258 50.3502L158.918 50.7409C158.521 50.3502 158.068 50.1827 157.557 50.1827Z" fill="white"/>
<path d="M162.603 53.7548C162.32 53.9781 161.979 54.0897 161.639 54.0897C161.299 54.0897 161.016 53.9781 160.846 53.7548C160.675 53.5316 160.562 53.2525 160.562 52.806V50.2386H159.938V49.7921H160.562V48.6759H161.129V49.7921H162.546V50.2386H161.072V52.7502C161.072 53.3083 161.299 53.5316 161.696 53.5316C161.923 53.5316 162.149 53.4758 162.433 53.3083L162.603 53.7548Z" fill="white"/>
<path d="M166.685 50.2943C167.025 50.7408 167.195 51.2989 167.195 52.0245H163.51C163.567 52.471 163.737 52.8617 164.02 53.1407C164.304 53.4198 164.701 53.5872 165.154 53.5872C165.438 53.5872 165.721 53.5314 165.948 53.4198C166.175 53.3082 166.402 53.1966 166.572 52.9733L166.912 53.3082C166.685 53.5314 166.458 53.6989 166.118 53.8105C165.835 53.9221 165.494 53.9779 165.154 53.9779C164.701 53.9779 164.36 53.8663 164.02 53.6989C163.68 53.5314 163.453 53.2524 163.227 52.9175C163.057 52.5826 162.943 52.1919 162.943 51.8013C162.943 51.3548 163.057 51.0199 163.227 50.685C163.397 50.3501 163.68 50.0711 164.02 49.9036C164.36 49.7362 164.701 49.6246 165.154 49.6246C165.778 49.6804 166.288 49.9036 166.685 50.2943ZM166.628 51.6338C166.628 51.1873 166.458 50.7966 166.175 50.5734C165.891 50.2943 165.551 50.1827 165.098 50.1827C164.644 50.1827 164.304 50.2943 163.964 50.5734C163.68 50.8524 163.51 51.1873 163.453 51.6338H166.628Z" fill="white"/>
<path d="M172.184 47.8945V54.0339H171.617V53.0293C171.447 53.3641 171.22 53.5874 170.937 53.8106C170.653 53.9781 170.256 54.0897 169.86 54.0897C169.463 54.0897 169.066 53.9781 168.726 53.8106C168.386 53.6432 168.159 53.3641 167.989 53.0293C167.819 52.6944 167.705 52.3037 167.705 51.8572C167.705 51.4107 167.819 51.0758 167.989 50.7409C168.159 50.4061 168.442 50.127 168.726 49.9596C169.066 49.7921 169.406 49.6805 169.803 49.6805C170.2 49.6805 170.54 49.7921 170.88 49.9596C171.22 50.127 171.447 50.4061 171.617 50.7409V47.9503H172.184V47.8945ZM170.823 53.3641C171.05 53.1967 171.277 53.0293 171.39 52.7502C171.56 52.4711 171.617 52.1921 171.617 51.8572C171.617 51.5223 171.56 51.2432 171.39 50.9642C171.22 50.6851 171.05 50.5177 170.823 50.3502C170.597 50.1828 170.256 50.127 169.973 50.127C169.633 50.127 169.349 50.1828 169.123 50.3502C168.896 50.5177 168.669 50.6851 168.499 50.9642C168.329 51.2432 168.272 51.5223 168.272 51.8572C168.272 52.1921 168.329 52.4711 168.499 52.7502C168.669 53.0293 168.839 53.1967 169.123 53.3641C169.406 53.5316 169.69 53.5874 169.973 53.5874C170.256 53.5874 170.54 53.5316 170.823 53.3641Z" fill="white"/>
<path d="M175.076 49.6804H175.699L177.06 53.4757L178.421 49.6804H179.044L180.405 53.4757L181.765 49.6804H182.332L180.688 54.0338H180.121L178.761 50.3502L177.4 54.0338H176.833L175.076 49.6804Z" fill="white"/>
<path d="M185.677 49.9595C186.017 50.1269 186.301 50.406 186.471 50.7409C186.641 51.0757 186.754 51.4664 186.754 51.8571C186.754 52.3036 186.641 52.6385 186.471 52.9734C186.301 53.3083 186.017 53.5873 185.677 53.7548C185.337 53.9222 184.94 54.0338 184.543 54.0338C184.146 54.0338 183.75 53.9222 183.409 53.7548C183.069 53.5873 182.786 53.3083 182.616 52.9734C182.446 52.6385 182.332 52.2478 182.332 51.8571C182.332 51.4106 182.446 51.0757 182.616 50.7409C182.786 50.406 183.069 50.1269 183.409 49.9595C183.75 49.792 184.146 49.6804 184.543 49.6804C184.94 49.6804 185.337 49.792 185.677 49.9595ZM183.693 50.3502C183.466 50.5176 183.239 50.6851 183.126 50.9641C183.013 51.2432 182.899 51.5222 182.899 51.8571C182.899 52.192 182.956 52.4711 183.126 52.7501C183.239 53.0292 183.466 53.1966 183.693 53.3641C183.92 53.5315 184.26 53.5873 184.543 53.5873C184.827 53.5873 185.167 53.5315 185.394 53.3641C185.62 53.1966 185.847 53.0292 185.961 52.7501C186.074 52.4711 186.187 52.192 186.187 51.8571C186.187 51.5222 186.131 51.2432 185.961 50.9641C185.847 50.6851 185.62 50.5176 185.394 50.3502C185.167 50.1827 184.827 50.1269 184.543 50.1269C184.26 50.1269 183.92 50.2385 183.693 50.3502Z" fill="white"/>
<path d="M189.022 49.9595C189.306 49.792 189.646 49.6804 189.986 49.6804V50.1827C189.532 50.1827 189.136 50.2944 188.852 50.5734C188.569 50.8525 188.399 51.2432 188.342 51.6897V54.0338H187.775V49.6804H188.342V50.6851C188.512 50.3502 188.739 50.1269 189.022 49.9595Z" fill="white"/>
<path d="M190.78 47.8945H191.346V54.0339H190.78V47.8945Z" fill="white"/>
<path d="M196.902 47.8945V54.0339H196.335V53.0293C196.165 53.3641 195.938 53.5874 195.655 53.8106C195.371 53.9781 194.974 54.0897 194.578 54.0897C194.181 54.0897 193.784 53.9781 193.444 53.8106C193.104 53.6432 192.877 53.3641 192.707 53.0293C192.537 52.6944 192.423 52.3037 192.423 51.8572C192.423 51.4107 192.537 51.0758 192.707 50.7409C192.877 50.4061 193.16 50.127 193.444 49.9596C193.784 49.7921 194.124 49.6805 194.521 49.6805C194.918 49.6805 195.258 49.7921 195.598 49.9596C195.938 50.127 196.165 50.4061 196.335 50.7409V47.9503H196.902V47.8945ZM195.485 53.3641C195.711 53.1967 195.938 53.0293 196.052 52.7502C196.222 52.4711 196.278 52.1921 196.278 51.8572C196.278 51.5223 196.222 51.2432 196.052 50.9642C195.882 50.6851 195.711 50.5177 195.485 50.3502C195.258 50.1828 194.918 50.127 194.634 50.127C194.294 50.127 194.011 50.1828 193.784 50.3502C193.557 50.5177 193.33 50.6851 193.16 50.9642C192.99 51.2432 192.934 51.5223 192.934 51.8572C192.934 52.1921 192.99 52.4711 193.16 52.7502C193.33 53.0293 193.501 53.1967 193.784 53.3641C194.067 53.5316 194.351 53.5874 194.634 53.5874C194.974 53.5874 195.258 53.5316 195.485 53.3641Z" fill="white"/>
<path d="M6.6978 57.9407C9.92929 59.8384 13.2175 59.95 16.449 58.1082C19.9639 56.1547 23.4222 54.0338 26.8804 52.0246C26.9938 51.9129 27.2206 51.9129 27.2206 51.6897C24.7261 52.3594 22.1749 52.5269 19.5671 52.3036C16.619 52.0804 13.8978 51.0199 11.2899 49.6804C10.7797 49.513 10.4395 49.1223 10.0427 48.7874C8.62535 47.8386 7.32142 46.7782 6.18756 45.4945C4.37339 43.4852 3.01276 41.2527 2.10568 38.7411C2.04898 38.5737 1.99229 38.462 1.87891 38.183C1.99229 42.4248 1.9356 46.4991 2.16237 50.5734C2.33245 53.7548 3.91985 56.2663 6.6978 57.9407Z" fill="white"/>
<path d="M23.2522 8.43478C11.6869 8.43478 2.27588 17.6997 2.27588 29.0855C2.27588 40.4713 11.6869 49.7363 23.2522 49.7363C34.8176 49.7363 44.2286 40.4713 44.2286 29.0855C44.2286 17.6439 34.8743 8.43478 23.2522 8.43478ZM23.2522 37.4574C18.5467 37.4574 14.7483 33.718 14.7483 29.0855C14.7483 24.4531 18.5467 20.7136 23.2522 20.7136C27.9578 20.7136 31.7562 24.4531 31.7562 29.0855C31.7562 33.718 27.9578 37.4574 23.2522 37.4574Z" fill="white"/>
<path d="M46.6095 23.4485C47.5733 27.1321 47.63 30.7599 46.4961 34.3878C45.6457 37.1784 44.3418 39.6342 42.4709 41.9225C42.8678 42.0342 43.0945 41.7551 43.378 41.6435C44.852 40.6946 46.326 39.7458 47.8 38.797C49.7843 37.4575 51.8819 36.3412 53.7528 34.7785C56.3607 32.6018 57.8347 28.1926 56.4174 24.7321C55.6237 22.7229 54.4898 21.0485 52.789 19.7648C51.8252 19.095 50.7481 18.6485 49.6142 18.1462C46.6662 16.6951 43.7182 15.2439 40.7701 13.737C40.7134 13.7928 40.7134 13.8486 40.6567 13.9044C41.7906 14.9649 42.8111 16.137 43.7182 17.4765C45.0221 19.3741 45.9292 21.3834 46.6095 23.4485Z" fill="white"/>
<path d="M11.6356 8.385C15.8309 6.26411 20.3663 5.70598 25.0151 6.37574C21.6135 4.70135 18.1553 3.08277 14.697 1.4642C12.9395 0.51538 11.0687 -0.0985624 9.08442 0.0130635C3.92537 0.347941 -0.269895 4.81297 0.0135691 10.0036C0.24034 13.7989 0.467112 17.65 0.693883 21.4452C0.693883 21.5569 0.63719 21.6685 0.863961 21.7801C1.20412 20.2732 1.77105 18.822 2.45136 17.4825C3.35845 15.6965 4.43561 13.9663 5.85293 12.571C7.55371 10.8966 9.48127 9.50126 11.6356 8.385Z" fill="white"/>
</svg>
